<svg xmlns="http://www.w3.org/2000/svg" width="22.168" height="17.641" viewBox="0 0 22.168 17.641">
  <g id="_004-delivery-3" data-name="004-delivery-3" transform="translate(0 -52.278)">
    <g id="Group_20" data-name="Group 20" transform="translate(0 56.277)">
      <g id="Group_19" data-name="Group 19" transform="translate(0 0)">
        <path id="Path_8" data-name="Path 8" d="M17.374,151.456a6.032,6.032,0,0,1-6.026-6.026,6.109,6.109,0,0,1,.052-.8H6.61A1.513,1.513,0,0,0,5.1,146.146v7.12a2.514,2.514,0,0,0-1.319.148v-6.152H2.294A2.3,2.3,0,0,0,0,149.555v5.5a1.35,1.35,0,0,0,1.349,1.349h.924a2.521,2.521,0,0,0,4.872,0h3.7a2.521,2.521,0,0,0,4.872,0h.767a1.513,1.513,0,0,0,1.511-1.511v-3.47A6.107,6.107,0,0,1,17.374,151.456ZM5.23,156.148a.62.62,0,0,1-.058.068c-.015.015-.031.029-.047.043l-.026.019-.026.019a.634.634,0,0,1-.055.033.715.715,0,0,1-.117.048l-.061.016a.618.618,0,0,1-.063.01.626.626,0,0,1-.064,0,.634.634,0,0,1-.064,0,.628.628,0,0,1-.063-.01l-.062-.016a.621.621,0,0,1-.06-.022.578.578,0,0,1-.058-.027c-.019-.01-.037-.021-.055-.033a.554.554,0,0,1-.051-.038c-.016-.013-.032-.028-.048-.043a.654.654,0,0,1-.19-.459.626.626,0,0,1,0-.064.618.618,0,0,1,.01-.063c0-.021.01-.041.016-.061a.717.717,0,0,1,.048-.117.721.721,0,0,1,.071-.106.553.553,0,0,1,.043-.047.653.653,0,0,1,.523-.187.618.618,0,0,1,.063.01.512.512,0,0,1,.061.016c.02.006.04.013.06.021s.039.017.058.027a.626.626,0,0,1,.055.032l.026.018.026.02a.666.666,0,0,1,.09.09.636.636,0,0,1,.038.052.623.623,0,0,1,.032.055c.01.019.019.038.027.058s.015.039.021.06a.51.51,0,0,1,.016.061.618.618,0,0,1,.01.063.627.627,0,0,1,0,.064A.65.65,0,0,1,5.23,156.148Zm8.513.068c-.015.015-.031.029-.047.043a.719.719,0,0,1-.106.071.568.568,0,0,1-.058.027.574.574,0,0,1-.06.022c-.02.006-.041.011-.061.016a.618.618,0,0,1-.063.01.626.626,0,0,1-.064,0,.634.634,0,0,1-.064,0,.628.628,0,0,1-.063-.01l-.062-.016a.718.718,0,0,1-.117-.048c-.019-.01-.037-.021-.055-.033a.626.626,0,0,1-.052-.038c-.016-.013-.032-.028-.047-.043a.654.654,0,0,1-.19-.459.626.626,0,0,1,0-.064.619.619,0,0,1,.01-.063c0-.021.01-.041.016-.061a.718.718,0,0,1,.048-.117c.01-.019.021-.037.032-.055s.025-.035.038-.052a.555.555,0,0,1,.043-.047.627.627,0,0,1,.047-.043.635.635,0,0,1,.052-.038q.027-.018.055-.032c.019-.01.038-.019.058-.027s.039-.015.06-.021a.522.522,0,0,1,.062-.016.636.636,0,0,1,.19-.01.618.618,0,0,1,.063.01.5.5,0,0,1,.061.016c.02.006.04.013.06.021s.039.017.058.027a.626.626,0,0,1,.055.032.634.634,0,0,1,.052.038.663.663,0,0,1,.09.09.64.64,0,0,1,.071.106c.01.019.019.038.027.058s.015.039.021.06a.513.513,0,0,1,.016.061.618.618,0,0,1,.01.063.627.627,0,0,1,0,.064A.655.655,0,0,1,13.742,156.216Z" transform="translate(0 -144.635)" fill="#fff"/>
      </g>
    </g>
    <g id="Group_22" data-name="Group 22" transform="translate(12.58 52.278)">
      <g id="Group_21" data-name="Group 21" transform="translate(0 0)">
        <path id="Path_9" data-name="Path 9" d="M295.334,52.278a4.794,4.794,0,1,0,4.794,4.794A4.8,4.8,0,0,0,295.334,52.278Zm.649,6.613a.649.649,0,1,1-1.3,0V57.019a.649.649,0,1,1,1.3,0Zm0-3.574c0,.021-.006.042-.01.063s-.01.042-.016.061-.013.041-.022.06-.017.039-.027.057-.021.037-.032.055-.024.035-.038.051-.028.032-.043.048-.031.029-.048.043-.034.026-.051.038a.625.625,0,0,1-.055.032q-.028.015-.057.027a.6.6,0,0,1-.06.021.489.489,0,0,1-.061.016.5.5,0,0,1-.063.01.608.608,0,0,1-.064,0,.623.623,0,0,1-.064,0,.507.507,0,0,1-.063-.01.527.527,0,0,1-.062-.016c-.02-.006-.04-.013-.06-.021s-.039-.017-.058-.027-.037-.021-.055-.032-.035-.024-.051-.038-.032-.028-.048-.043-.029-.031-.043-.048-.026-.034-.038-.051a.631.631,0,0,1-.032-.055q-.015-.028-.027-.057c-.008-.019-.015-.04-.022-.06s-.011-.041-.016-.061-.007-.042-.009-.063,0-.043,0-.064,0-.043,0-.064.006-.042.009-.063.01-.042.016-.062.013-.04.022-.06.017-.039.027-.058.021-.037.032-.055a.626.626,0,0,1,.038-.051c.013-.016.028-.032.043-.048s.031-.029.048-.043a.624.624,0,0,1,.051-.038c.018-.012.036-.023.055-.033s.038-.019.058-.027a.618.618,0,0,1,.06-.022l.062-.016.063-.01a.629.629,0,0,1,.128,0c.021,0,.042.006.063.01l.061.016a.59.59,0,0,1,.06.022c.019.008.039.017.057.027a.628.628,0,0,1,.055.033c.017.012.035.024.051.038s.033.028.048.043.029.031.043.048a.633.633,0,0,1,.038.051q.018.027.032.055c.01.019.019.038.027.058s.015.04.022.06.011.041.016.062.007.042.01.063,0,.043,0,.064S295.982,55.3,295.981,55.318Z" transform="translate(-290.54 -52.278)" fill="#fff"/>
      </g>
    </g>
  </g>
</svg>
