<svg xmlns="http://www.w3.org/2000/svg" width="42.872" height="46.529" viewBox="0 0 42.872 46.529">
  <g id="_014-localize" data-name="014-localize" transform="translate(-20.123)">
    <g id="Group_90" data-name="Group 90" transform="translate(41.871 24.685)">
      <g id="Group_89" data-name="Group 89">
        <path id="Path_39" data-name="Path 39" d="M280.156,291.152l-3.165-3.165a9.948,9.948,0,1,0-2.026,1.829l3.264,3.264a1.363,1.363,0,0,0,1.928-1.928Zm-10.775-2.344a7.223,7.223,0,1,1,7.223-7.223A7.231,7.231,0,0,1,269.381,288.808Z" transform="translate(-259.431 -271.635)" fill="#038117"/>
      </g>
    </g>
    <g id="Group_92" data-name="Group 92" transform="translate(21.128)">
      <g id="Group_91" data-name="Group 91">
        <path id="Path_40" data-name="Path 40" d="M38.1,0A2.43,2.43,0,0,0,36,1.213L31.181,9.749H46.192V0Z" transform="translate(-31.181)" fill="#c5c6c8"/>
      </g>
    </g>
    <g id="Group_94" data-name="Group 94" transform="translate(38.866)">
      <g id="Group_93" data-name="Group 93">
        <path id="Path_41" data-name="Path 41" d="M236.478,1.21a2.43,2.43,0,0,0-2.1-1.21h-8.016V9.749h14.981Z" transform="translate(-226.365 0)" fill="#c5c6c8"/>
      </g>
    </g>
    <g id="Group_96" data-name="Group 96" transform="translate(20.123 12.303)">
      <g id="Group_95" data-name="Group 95">
        <path id="Path_42" data-name="Path 42" d="M20.123,135.375v23.917a3.372,3.372,0,0,0,3.368,3.368H40.368A12.524,12.524,0,0,1,54.8,145.5v-10.12Z" transform="translate(-20.123 -135.375)" fill="#c5c6c8"/>
      </g>
    </g>
  </g>
</svg>
