<svg id="Group_8266" data-name="Group 8266" xmlns="http://www.w3.org/2000/svg" width="19.078" height="12.723" viewBox="0 0 19.078 12.723">
  <g id="Group_8265" data-name="Group 8265" transform="translate(0 0)">
    <path id="Path_10291" data-name="Path 10291" d="M17.845,91.074l-3.32-3.32a8.466,8.466,0,0,0-11.973,0l-3.32,3.32a.8.8,0,0,0,0,1.124l3.32,3.32a8.466,8.466,0,0,0,11.973,0l3.32-3.32A.8.8,0,0,0,17.845,91.074Zm-7.06,2.8c-2.055,1.166-2.534,2.408-5.22-.278L4.9,91.074l.667-1.694c2-1.444,3.034-2.686,5.719,0L11.9,92.2Z" transform="translate(1 -85.274)" fill="#c5c7c6"/>
    <path id="Path_10292" data-name="Path 10292" d="M153.355,149.333a5.022,5.022,0,1,0,5.022,5.022A5.023,5.023,0,0,0,153.355,149.333Zm0,8.036a3.013,3.013,0,1,1,3.013-3.013A3.014,3.014,0,0,1,153.355,157.369Z" transform="translate(-143.816 -147.994)" fill="#c5c7c6"/>
  </g>
</svg>
