<svg xmlns="http://www.w3.org/2000/svg" xmlns:xlink="http://www.w3.org/1999/xlink" width="428" height="527" viewBox="0 0 428 527">
  <defs>
    <linearGradient id="linear-gradient" x1="0.5" x2="0.5" y2="1" gradientUnits="objectBoundingBox">
      <stop offset="0" stop-color="#fff"/>
      <stop offset="0.585" stop-color="#fff"/>
      <stop offset="1" stop-color="#f3f3f5"/>
    </linearGradient>
    <clipPath id="clip-iPhone_12_Pro_Max_17">
      <rect width="428" height="527"/>
    </clipPath>
  </defs>
  <g id="iPhone_12_Pro_Max_17" data-name="iPhone 12 Pro Max – 17" clip-path="url(#clip-iPhone_12_Pro_Max_17)">
    <path id="Path_157" data-name="Path 157" d="M2441.126,66.447c8.123,3.366,24.955.481,23.512,11.542s2.885,17.312,6.733,13.946,20.2,7.214,12.022,13.946-29.816,7.214-24.526,16.832.481,14.427,0,16.832,7.695-9.137,12.5-7.694,6.733,15.87-2.4,15.87-7.694,5.29-4.328,12.023,11.061,19.717,6.733,28.373-25.865,8.175-30.245,0,9.688,214.7,13,221.434,17.741-5.771,17.741-10.1,12.5-11.542,17.313-8.656,7.213.481,7.213-4.809,4.809-8.656,8.656-7.214,12.5-4.328,12.5-8.656,7.694-17.312,0-22.6-12.5-11.061-10.1-18.274-3.847-30.3-6.252-22.6-29.816,22.122-35.106,18.274,1.924-24.526-2.4-21.16,20.03-18.936,24.306-36.249,9.566,15.87,23.512,20.2,30.3-.962,32.7,5.771,26.45,14.908,31.259,12.5,11.061,3.847,14.908,3.366,25.969-9.137,33.663-6.733,42.606,3.366,49.338,9.618,9.618-4.809,17.793,0S2703.2,309.34,2703.2,318s-3.008,120.466,7.091,124.794c5,2.142,27.091,36.428,37.51,22.89,10.261-13.332,8.82-74.551,10.763-78.194,3.847-7.214,32.354-37.029,38.606-30.537s10.58-15.148,10.1-16.832,33.182-1.683,33.182-11.061,49.052,51.216,28.854,58.43,21.641,8.656,24.045-4.088,13.465,56.025,23.083,68.529S2942.4-16.952,2942.4-16.952H2461.979Z" transform="translate(-2488)" fill="url(#linear-gradient)"/>
    <g id="Group_351" data-name="Group 351" transform="translate(-9 37)">
      <path id="Path_158" data-name="Path 158" d="M2554.945,79.964c198.553-1.368,101.535,62.669,314.669,63.983" transform="translate(-2480 23)" fill="none" stroke="#bababa" stroke-width="1"/>
      <circle id="Ellipse_4" data-name="Ellipse 4" cx="12.5" cy="12.5" r="12.5" transform="translate(62 90)" fill="#ff3600" opacity="0.5"/>
      <circle id="Ellipse_5" data-name="Ellipse 5" cx="12.5" cy="12.5" r="12.5" transform="translate(377 154)" fill="#ff3600" opacity="0.5"/>
      <circle id="Ellipse_3" data-name="Ellipse 3" cx="9.5" cy="9.5" r="9.5" transform="translate(65 93)" fill="#ff3600" opacity="0.5"/>
      <circle id="Ellipse_6" data-name="Ellipse 6" cx="9.5" cy="9.5" r="9.5" transform="translate(380 157)" fill="#ff3600" opacity="0.5"/>
      <circle id="Ellipse_2" data-name="Ellipse 2" cx="5.5" cy="5.5" r="5.5" transform="translate(69 97)" fill="#ff3600"/>
      <circle id="Ellipse_7" data-name="Ellipse 7" cx="5.5" cy="5.5" r="5.5" transform="translate(384 161)" fill="#ff3600"/>
    </g>
    <text id="Hytaý_respublikasy" data-name="Hytaý 
respublikasy" transform="translate(390 237)" fill="#252525" font-size="14" font-family="Montserrat-SemiBold, Montserrat" font-weight="600"><tspan x="-45.892" y="0">Hytaý </tspan><tspan x="-90.916" y="18">respublikasy</tspan></text>
    <text id="Turkmenistan" transform="translate(103 170)" fill="#252525" font-size="14" font-family="Montserrat-SemiBold, Montserrat" font-weight="600"><tspan x="-50.407" y="0">Turkmenistan</tspan></text>
  </g>
</svg>
