<svg xmlns="http://www.w3.org/2000/svg" width="20.786" height="14.528" viewBox="0 0 20.786 14.528">
  <g id="plane_take_off" data-name="plane take off" transform="translate(0 -55.948)">
    <g id="Group_8258" data-name="Group 8258" transform="translate(0 55.948)">
      <g id="Group_8257" data-name="Group 8257" transform="translate(0 0)">
        <path id="Path_10277" data-name="Path 10277" d="M2.116,64.7h0a.488.488,0,0,0,.379.9l6.815-2.267L8.033,65.405a.395.395,0,0,0,.519.556l1.336-.694a.393.393,0,0,0,.1-.077l3.959-4.135L18.836,58.5c1.85-1,1.636-1.764,1.526-1.975a1.043,1.043,0,0,0-.7-.5,4.152,4.152,0,0,0-1.77.029,2.293,2.293,0,0,1-.544.038c-.523-.014-.878.021-2.639.936L5.078,62.039,1.342,60.1a.487.487,0,0,0-.449,0l-.63.327a.488.488,0,0,0-.155.738L2.7,64.4Z" transform="translate(0 -55.948)" fill="#fff"/>
        <path id="Path_10278" data-name="Path 10278" d="M31.511,282.5H13.273a.929.929,0,1,0,0,1.857H31.511a.929.929,0,1,0,0-1.857Z" transform="translate(-11.654 -269.83)" fill="#fff"/>
      </g>
    </g>
  </g>
</svg>
