<svg xmlns="http://www.w3.org/2000/svg" width="19.776" height="17.503" viewBox="0 0 19.776 17.503">
  <g id="Group_332" data-name="Group 332" transform="translate(-247.273 -292.369)">
    <g id="Group_103" data-name="Group 103" transform="translate(247.273 292.369)">
      <path id="Path_46" data-name="Path 46" d="M266.72,299.757a1.2,1.2,0,0,0-1.69-.042l-.2.187a8.827,8.827,0,1,0-10.488,9.945,1.2,1.2,0,1,0,.476-2.343,6.436,6.436,0,1,1,7.6-7.545l-.192-.183a1.2,1.2,0,1,0-1.648,1.732l2.18,2.074.024.021c.017.015.034.03.052.044l.04.031.052.037.048.03.049.028.058.028.045.02c.023.009.046.018.07.026l.039.013c.028.008.056.015.084.022l.024.006h.006c.029.006.059.01.088.013l.03,0c.023,0,.047,0,.07,0a1.273,1.273,0,0,0,.9-.333l2.238-2.13A1.2,1.2,0,0,0,266.72,299.757Z" transform="translate(-247.273 -292.369)"/>
    </g>
  </g>
</svg>
