<svg xmlns="http://www.w3.org/2000/svg" width="157.001" height="91.001" viewBox="0 0 157.001 91.001">
  <g id="Group_8491" data-name="Group 8491" transform="translate(-230 -449)">
    <g id="Group_8485" data-name="Group 8485" transform="translate(0.001 0.999)">
      <path id="Intersection_2" data-name="Intersection 2" d="M10.4,91a104.74,104.74,0,0,1,0-91H145a12,12,0,0,1,12,12V79a12,12,0,0,1-12,12Z" transform="translate(229.999 448.001)" fill="#7bbd85" opacity="0.2"/>
      <path id="Intersection_1" data-name="Intersection 1" d="M15.75,91a73.6,73.6,0,0,1,0-91H117a12,12,0,0,1,12,12V79a12,12,0,0,1-12,12Z" transform="translate(257.999 448.001)" fill="#038117" opacity="0.4"/>
    </g>
    <g id="Group_8486" data-name="Group 8486" transform="translate(0 1)">
      <g id="clipboard" transform="translate(259.381 462.691)">
        <g id="Group_8285" data-name="Group 8285" transform="translate(47.037 0)">
          <g id="Group_8284" data-name="Group 8284">
            <path id="Path_10302" data-name="Path 10302" d="M90.657,8.335H84.9V5.76c0-.833-.909-1.212-1.742-1.212H78.692A6.774,6.774,0,0,0,71.952.005a6.891,6.891,0,0,0-6.74,4.544H60.82c-.833,0-1.666.379-1.666,1.212V8.335H53.4a6.437,6.437,0,0,0-6.361,6.134V57.862c0,3.332,3.029,5.755,6.361,5.755H90.657c3.332,0,6.361-2.423,6.361-5.755V14.469A6.437,6.437,0,0,0,90.657,8.335ZM62.183,7.578h4.165a1.666,1.666,0,0,0,1.439-1.363,4.392,4.392,0,0,1,4.165-3.408,4.316,4.316,0,0,1,4.089,3.408,1.666,1.666,0,0,0,1.515,1.363h4.317v6.058H62.183ZM93.989,57.862c0,1.666-1.666,2.726-3.332,2.726H53.4c-1.666,0-3.332-1.06-3.332-2.726V14.469a3.408,3.408,0,0,1,3.332-3.1h5.755v3.862a1.59,1.59,0,0,0,1.666,1.439H83.16A1.666,1.666,0,0,0,84.9,15.227V11.364h5.755a3.408,3.408,0,0,1,3.332,3.1V57.862Z" transform="translate(-47.037 0)" fill="#038117" stroke="#038117" stroke-width="1"/>
            <path id="Path_10303" data-name="Path 10303" d="M110.953,230.784a1.515,1.515,0,0,0-2.12-.076l-4.847,4.619-2.045-2.12a1.515,1.515,0,0,0-2.12-.076,1.59,1.59,0,0,0,0,2.2l3.1,3.181a1.363,1.363,0,0,0,1.06.454,1.514,1.514,0,0,0,1.06-.454l5.907-5.6a1.439,1.439,0,0,0,.087-2.033C111.013,230.841,110.983,230.811,110.953,230.784Z" transform="translate(-91.794 -196.928)" fill="#038117" stroke="#038117" stroke-width="1"/>
            <path id="Path_10304" data-name="Path 10304" d="M217.48,256.034H200.063a1.515,1.515,0,0,0,0,3.029H217.48a1.515,1.515,0,1,0,0-3.029Z" transform="translate(-176.586 -218.922)" fill="#038117" stroke="#038117" stroke-width="1"/>
            <path id="Path_10305" data-name="Path 10305" d="M110.953,147.192a1.515,1.515,0,0,0-2.12-.076l-4.847,4.619-2.045-2.12a1.515,1.515,0,0,0-2.12-.076,1.59,1.59,0,0,0,0,2.2l3.1,3.181a1.363,1.363,0,0,0,1.06.454,1.514,1.514,0,0,0,1.06-.454l5.907-5.6a1.439,1.439,0,0,0,.087-2.033C111.013,147.249,110.983,147.219,110.953,147.192Z" transform="translate(-91.794 -125.452)" fill="#038117" stroke="#038117" stroke-width="1"/>
            <path id="Path_10306" data-name="Path 10306" d="M217.48,172.442H200.063a1.515,1.515,0,0,0,0,3.029H217.48a1.515,1.515,0,0,0,0-3.029Z" transform="translate(-176.586 -147.447)" fill="#038117" stroke="#038117" stroke-width="1"/>
            <path id="Path_10307" data-name="Path 10307" d="M110.953,314.375a1.515,1.515,0,0,0-2.12-.076l-4.847,4.619-2.045-2.12a1.515,1.515,0,0,0-2.12-.076,1.59,1.59,0,0,0,0,2.2l3.1,3.181a1.363,1.363,0,0,0,1.06.454,1.514,1.514,0,0,0,1.06-.454l5.907-5.6a1.439,1.439,0,0,0,.087-2.033C111.013,314.432,110.983,314.4,110.953,314.375Z" transform="translate(-91.794 -268.402)" fill="#038117" stroke="#038117" stroke-width="1"/>
            <path id="Path_10308" data-name="Path 10308" d="M217.48,339.626H200.063a1.515,1.515,0,0,0,0,3.029H217.48a1.515,1.515,0,1,0,0-3.029Z" transform="translate(-176.586 -290.397)" fill="#038117" stroke="#038117" stroke-width="1"/>
          </g>
        </g>
      </g>
    </g>
  </g>
</svg>
