<svg id="shopping-cart" xmlns="http://www.w3.org/2000/svg" width="20.892" height="20.906" viewBox="0 0 20.892 20.906">
  <path id="Path_10283" data-name="Path 10283" d="M20.726,46.666a.879.879,0,0,0-.541-.179H19.1a.676.676,0,0,0-.674.614,6.974,6.974,0,0,1-13.89,0,.676.676,0,0,0-.674-.614l-.243-2.705A.858.858,0,0,0,2.768,43H1.045a.871.871,0,0,0-.878.827.858.858,0,0,0,.857.889h.959l.94,10.478c0,.012,0,.024,0,.037a.863.863,0,0,0,.012.1l.034.383c0,.007,0,.014,0,.022a3.3,3.3,0,0,0,1.234,2.215,2.6,2.6,0,1,0,4.494.715h4.7a2.6,2.6,0,1,0,5.047.92,2.626,2.626,0,0,0-2.639-2.636H6.26A1.593,1.593,0,0,1,4.8,55.98l13.712-.806a.858.858,0,0,0,.782-.648l1.743-6.973a.859.859,0,0,0-.307-.887Z" transform="translate(-0.166 -41.243)" fill="#038117"/>
  <path id="Path_10284" data-name="Path 10284" d="M158.549,5.2a5.216,5.216,0,0,0-10.432,0h0c0,.013,0,.027,0,.04a5.216,5.216,0,1,0,10.433,0c0-.013,0-.027,0-.04h0Zm-3.3-.225L153.5,6.722a.858.858,0,0,1-1.213,0l-.872-.872a.858.858,0,0,1,1.213-1.213l.265.265,1.137-1.137a.858.858,0,0,1,1.213,1.213Z" transform="translate(-142.07)" fill="#038117"/>
</svg>
