<svg xmlns="http://www.w3.org/2000/svg" width="46.385" height="46.087" viewBox="0 0 46.385 46.087">
  <g id="Group_8496" data-name="Group 8496" transform="translate(-40.192 -527.956)">
    <g id="_048-package-2" data-name="048-package-2" transform="translate(40.192 526.314)">
      <g id="Group_297" data-name="Group 297" transform="translate(1.305 7.92)">
        <g id="Group_296" data-name="Group 296">
          <path id="Path_145" data-name="Path 145" d="M23.184,70.942l-8.368,4.441a3.221,3.221,0,0,0-.407.254L35.807,86.8l8.96-4.432Z" transform="translate(-14.409 -70.942)" fill="#c5c6c8"/>
        </g>
      </g>
      <g id="Group_299" data-name="Group 299" transform="translate(24.045 15.094)">
        <g id="Group_298" data-name="Group 298">
          <path id="Path_146" data-name="Path 146" d="M287.75,150.122l-10.705,5.295v5.965a1.358,1.358,0,1,1-2.717,0v-4.621l-8.913,4.409v21.588c.028-.013.056-.025.084-.039l20.491-10.383a3.174,3.174,0,0,0,1.765-2.855V150.242C287.755,150.2,287.752,150.162,287.75,150.122Z" transform="translate(-265.415 -150.122)" fill="#c5c6c8"/>
        </g>
      </g>
      <g id="Group_301" data-name="Group 301" transform="translate(12.98 1.642)">
        <g id="Group_300" data-name="Group 300">
          <path id="Path_147" data-name="Path 147" d="M174.915,12.358,154.433,1.98l-.009,0a3.2,3.2,0,0,0-2.9.027l-8.25,4.378,21.686,11.476,10.467-5.177A3.225,3.225,0,0,0,174.915,12.358Z" transform="translate(-143.275 -1.642)" fill="#c5c6c8"/>
        </g>
      </g>
      <g id="Group_303" data-name="Group 303" transform="translate(0 15.002)">
        <g id="Group_302" data-name="Group 302" transform="translate(0 0)">
          <path id="Path_148" data-name="Path 148" d="M.006,149.117c0,.062-.006.125-.006.187V168.59a3.183,3.183,0,0,0,1.712,2.828l19.509,10.354.009,0c.032.017.066.032.1.048v-21.59Zm14.648,16.12-5.41,3.174-.021.011-.01.006-.025.013-.041.021-.04.018-.042.018-.041.016-.042.015-.043.013-.04.012-.047.011-.037.008-.053.009-.032,0-.064.006-.021,0-.086,0-.05,0H8.47l-.045,0-.043,0-.042-.007-.046-.008-.039-.009-.047-.011-.037-.011-.047-.014-.036-.013-.047-.018-.035-.015-.046-.021-.034-.018-.044-.024-.034-.02-.041-.026-.034-.024-.039-.028-.034-.027-.035-.029-.034-.031L7.6,168.2l-.033-.034-.029-.032-.032-.038-.026-.033-.03-.041-.024-.035L7.4,167.95l-.015-.024-.006-.011-.012-.02-1.557-2.821a1.359,1.359,0,0,1,2.379-1.313l.883,1.6,4.207-2.468a1.359,1.359,0,0,1,1.375,2.344Z" transform="translate(0 -149.117)" fill="#c5c6c8"/>
        </g>
      </g>
    </g>
    <path id="Path_159" data-name="Path 159" d="M47,556.28s1.647,3.151,1.767,3.157,5.425-3.157,5.425-3.157" fill="none" stroke="#0a0e17" stroke-linecap="round" stroke-width="2.8"/>
  </g>
</svg>
