<svg xmlns="http://www.w3.org/2000/svg" width="157.001" height="91.001" viewBox="0 0 157.001 91.001">
  <g id="Group_8492" data-name="Group 8492" transform="translate(-230 -449)">
    <g id="Group_8484" data-name="Group 8484" transform="translate(53.001 0.999)">
      <path id="Intersection_2" data-name="Intersection 2" d="M10.4,91a104.74,104.74,0,0,1,0-91H145a12,12,0,0,1,12,12V79a12,12,0,0,1-12,12Z" transform="translate(176.999 448.001)" fill="#7bbd85" opacity="0.2"/>
      <path id="Intersection_1" data-name="Intersection 1" d="M15.75,91a73.6,73.6,0,0,1,0-91H117a12,12,0,0,1,12,12V79a12,12,0,0,1-12,12Z" transform="translate(204.999 448.001)" fill="#038117" opacity="0.4"/>
    </g>
    <g id="Group_8483" data-name="Group 8483">
      <g id="magnifying-glass" transform="translate(296 471.283)">
        <path id="Path_10297" data-name="Path 10297" d="M34.773,5.958a20.376,20.376,0,1,0-2.786,31.125,4.29,4.29,0,0,0,1.164,2.159L44.719,50.811a4.3,4.3,0,1,0,6.087-6.087L39.238,33.152a4.3,4.3,0,0,0-2.158-1.161A20.4,20.4,0,0,0,34.773,5.958ZM31.121,31.123a15.211,15.211,0,1,1,0-21.511A15.228,15.228,0,0,1,31.121,31.123Z" transform="translate(-0.001 0)" fill="#038117"/>
        <g id="_048-package-2" data-name="048-package-2" transform="translate(10.192 8.64)">
          <g id="Group_8275" data-name="Group 8275" transform="translate(0.608 4.568)">
            <g id="Group_8274" data-name="Group 8274">
              <path id="Path_10298" data-name="Path 10298" d="M18.5,70.942l-3.9,2.07a1.5,1.5,0,0,0-.189.118l9.972,5.2,4.176-2.065Z" transform="translate(-14.409 -70.942)" fill="#038117"/>
            </g>
          </g>
          <g id="Group_8277" data-name="Group 8277" transform="translate(11.206 7.911)">
            <g id="Group_8276" data-name="Group 8276">
              <path id="Path_10299" data-name="Path 10299" d="M275.824,150.122l-4.989,2.468v2.78a.633.633,0,1,1-1.266,0v-2.154l-4.154,2.055v10.061l.039-.018,9.55-4.839a1.479,1.479,0,0,0,.822-1.331v-8.966C275.826,150.159,275.825,150.141,275.824,150.122Z" transform="translate(-265.415 -150.122)" fill="#038117"/>
            </g>
          </g>
          <g id="Group_8279" data-name="Group 8279" transform="translate(6.049 1.642)">
            <g id="Group_8278" data-name="Group 8278">
              <path id="Path_10300" data-name="Path 10300" d="M158.021,6.636,148.475,1.8l0,0a1.492,1.492,0,0,0-1.351.013l-3.845,2.041L153.381,9.2l4.878-2.413A1.5,1.5,0,0,0,158.021,6.636Z" transform="translate(-143.275 -1.642)" fill="#038117"/>
            </g>
          </g>
          <g id="Group_8281" data-name="Group 8281" transform="translate(0 7.868)">
            <g id="Group_8280" data-name="Group 8280" transform="translate(0 0)">
              <path id="Path_10301" data-name="Path 10301" d="M0,149.117c0,.029,0,.058,0,.087v8.988a1.483,1.483,0,0,0,.8,1.318l9.092,4.826,0,0,.046.022V154.3Zm6.826,7.513-2.521,1.479-.01.005,0,0-.012.006-.019.01-.018.008-.02.008-.019.007-.019.007-.02.006-.019.005-.022.005-.017,0-.025,0-.015,0-.03,0H3.947l-.021,0-.02,0-.019,0-.021,0-.018,0-.022-.005-.017-.005-.022-.007-.017-.006-.022-.008-.016-.007-.021-.01-.016-.008-.021-.011-.016-.01-.019-.012-.016-.011-.018-.013-.016-.012-.017-.014-.016-.014-.015-.014L3.527,158l-.014-.015-.015-.018-.012-.015-.014-.019-.011-.016-.013-.02-.007-.011,0,0-.006-.009-.726-1.315a.633.633,0,0,1,1.109-.612l.412.746,1.961-1.15a.633.633,0,0,1,.641,1.092Z" transform="translate(0 -149.117)" fill="#038117"/>
            </g>
          </g>
        </g>
      </g>
    </g>
  </g>
</svg>
