<svg id="user" xmlns="http://www.w3.org/2000/svg" width="16.744" height="20.07" viewBox="0 0 16.744 20.07">
  <path id="Path_10285" data-name="Path 10285" d="M91.866,9.668a4.677,4.677,0,0,0,3.418-1.416A4.677,4.677,0,0,0,96.7,4.834a4.678,4.678,0,0,0-1.416-3.418,4.833,4.833,0,0,0-6.836,0,4.677,4.677,0,0,0-1.416,3.418,4.677,4.677,0,0,0,1.416,3.418A4.678,4.678,0,0,0,91.866,9.668Zm0,0" transform="translate(-83.62 0)" fill="#038117"/>
  <path id="Path_10286" data-name="Path 10286" d="M16.7,253.054a11.941,11.941,0,0,0-.163-1.268,9.991,9.991,0,0,0-.312-1.275,6.3,6.3,0,0,0-.524-1.189,4.487,4.487,0,0,0-.79-1.03,3.485,3.485,0,0,0-1.135-.713,3.924,3.924,0,0,0-1.449-.262,1.471,1.471,0,0,0-.786.333c-.235.154-.511.331-.818.528a4.689,4.689,0,0,1-1.059.467,4.112,4.112,0,0,1-2.59,0,4.679,4.679,0,0,1-1.058-.466c-.3-.195-.58-.372-.819-.528a1.469,1.469,0,0,0-.785-.333,3.919,3.919,0,0,0-1.449.263,3.482,3.482,0,0,0-1.136.713,4.488,4.488,0,0,0-.79,1.03,6.31,6.31,0,0,0-.524,1.189A10.016,10.016,0,0,0,.2,251.786a11.9,11.9,0,0,0-.163,1.269c-.027.384-.04.783-.04,1.185a3.333,3.333,0,0,0,.99,2.521,3.563,3.563,0,0,0,2.551.93H13.2a3.562,3.562,0,0,0,2.55-.93,3.331,3.331,0,0,0,.99-2.521c0-.4-.014-.8-.041-1.185Zm0,0" transform="translate(0 -237.622)" fill="#038117"/>
</svg>
