<svg xmlns="http://www.w3.org/2000/svg" width="54.999" height="35.439" viewBox="0 0 54.999 35.439">
  <g id="_027-delivery-truck-1" data-name="027-delivery-truck-1" transform="translate(4.617)">
    <g id="Group_178" data-name="Group 178" transform="translate(32.509 23.77)">
      <g id="Group_177" data-name="Group 177" transform="translate(0 0)">
        <path id="Path_85" data-name="Path 85" d="M68.88,317.489a5.834,5.834,0,1,1-5.834,5.834A5.841,5.841,0,0,1,68.88,317.489Z" transform="translate(-63.046 -317.489)" fill="#c5c6c8"/>
      </g>
    </g>
    <g id="Group_180" data-name="Group 180" transform="translate(8.954 23.77)">
      <g id="Group_179" data-name="Group 179" transform="translate(0 0)">
        <path id="Path_86" data-name="Path 86" d="M308.253,317.489a5.834,5.834,0,1,1-5.834,5.834A5.841,5.841,0,0,1,308.253,317.489Z" transform="translate(-302.419 -317.489)" fill="#c5c6c8"/>
      </g>
    </g>
    <g id="Group_182" data-name="Group 182" transform="translate(0 0)">
      <g id="Group_181" data-name="Group 181" transform="translate(0 0)">
        <line id="Line_9" data-name="Line 9" y2="13" transform="translate(-3.617 10.5) rotate(-90)" fill="none" stroke="#0a0e17" stroke-linecap="round" stroke-width="2"/>
        <line id="Line_10" data-name="Line 10" y2="13" transform="translate(1.383 15.5) rotate(-90)" fill="none" stroke="#0a0e17" stroke-linecap="round" stroke-width="2"/>
        <line id="Line_11" data-name="Line 11" y2="13" transform="translate(-0.617 5.5) rotate(-90)" fill="none" stroke="#0a0e17" stroke-linecap="round" stroke-width="2"/>
        <path id="Path_87" data-name="Path 87" d="M1.48,104.054H3.369V93.1c0-1.342.236-10.18.372-14.987.257-1.086.726-2.131,3.183-2.185,1.578.008,18.634.086,20.42.086h6.169a7.814,7.814,0,0,1,7.658,6.315L42.494,90h.028l.337.189c3.865,1.471,7.523,5.169,7.523,8.887v4.75a3.194,3.194,0,0,1-3.19,3.19H46.066a7.864,7.864,0,1,0-15.445,0h-8.11a7.864,7.864,0,1,0-15.445,0H1.479a1.479,1.479,0,1,1,0-2.959Z" transform="translate(0 -75.929)" fill="#c5c6c8"/>
      </g>
    </g>
  </g>
</svg>
