<svg xmlns="http://www.w3.org/2000/svg" width="22.168" height="20.255" viewBox="0 0 22.168 20.255">
  <g id="_007-cargo-ship" data-name="007-cargo-ship" transform="translate(0 -22.1)">
    <g id="Group_34" data-name="Group 34" transform="translate(0 39.695)">
      <g id="Group_33" data-name="Group 33" transform="translate(0 0)">
        <path id="Path_15" data-name="Path 15" d="M21.965,429.429a2.721,2.721,0,0,0-3.689-.048,1.425,1.425,0,0,1-1.8.08l-.6-.447a2.729,2.729,0,0,0-3.294.021l-.656.505a1.429,1.429,0,0,1-1.705.023l-.783-.571a2.728,2.728,0,0,0-3.3.068l-.442.351a1.419,1.419,0,0,1-1.828-.05l-.012-.011a2.711,2.711,0,0,0-3.655.036.649.649,0,0,0,.882.954A1.416,1.416,0,0,1,3,430.32l.012.011a2.716,2.716,0,0,0,3.5.1l.442-.351a1.425,1.425,0,0,1,1.722-.036l.783.571a2.735,2.735,0,0,0,3.263-.043l.656-.505a1.426,1.426,0,0,1,1.721-.011l.6.447a2.727,2.727,0,0,0,3.451-.152,1.429,1.429,0,0,1,1.927.025.649.649,0,0,0,.893-.943Z" transform="translate(0 -428.47)" fill="#fff"/>
      </g>
    </g>
    <g id="Group_36" data-name="Group 36" transform="translate(3.232 22.1)">
      <g id="Group_35" data-name="Group 35">
        <path id="Path_16" data-name="Path 16" d="M89.406,29.957l-1.221-.339V25.809a1.4,1.4,0,0,0-1.4-1.4H85.706v2.249a.65.65,0,0,1-1.3,0V24.413h1.3V23.331c0-.012,0-.024,0-.036a1.232,1.232,0,0,0-1.23-1.2h-3.84A1.232,1.232,0,0,0,79.4,23.3c0,.012,0,.023,0,.036v1.082h1.3v2.249a.65.65,0,0,1-1.3,0V24.413H78.291a1.4,1.4,0,0,0-1.4,1.4v3.809l-1.219.339A1.4,1.4,0,0,0,74.667,31.5l1.154,8.039A1.421,1.421,0,0,0,77.16,39.3l.441-.351a2.729,2.729,0,0,1,3.3-.068l.782.571a1.387,1.387,0,0,0,.211.127V28.229l.275-.077a1.4,1.4,0,0,1,.748,0l.276.077V39.56a1.436,1.436,0,0,0,.195-.126l.656-.505a2.728,2.728,0,0,1,3.293-.021l.6.447a1.424,1.424,0,0,0,1.352.193L90.415,31.5A1.4,1.4,0,0,0,89.406,29.957Zm-6.217-4.443v1.148a.65.65,0,0,1-1.3,0V24.413h1.3Z" transform="translate(-74.653 -22.1)" fill="#fff"/>
      </g>
    </g>
  </g>
</svg>
