<svg xmlns="http://www.w3.org/2000/svg" width="157" height="97" viewBox="0 0 157 97">
  <g id="Group_8493" data-name="Group 8493" transform="translate(-228 -445.013)">
    <g id="Group_8488" data-name="Group 8488" transform="translate(228 445.507)">
      <path id="Intersection_2" data-name="Intersection 2" d="M10.4,97A117.025,117.025,0,0,1,0,48.5,117.025,117.025,0,0,1,10.4,0H145a12,12,0,0,1,12,12V85a12,12,0,0,1-12,12Z" transform="translate(0 -0.493)" fill="#7bbd85" opacity="0.2"/>
      <path id="Intersection_1" data-name="Intersection 1" d="M15.749,97A81.676,81.676,0,0,1,0,48.5,81.679,81.679,0,0,1,15.75,0H117a12,12,0,0,1,12,12V85a12,12,0,0,1-12,12Z" transform="translate(28 -0.493)" fill="#038117" opacity="0.4"/>
    </g>
    <g id="Group_8489" data-name="Group 8489" transform="translate(309 445.507)">
      <text id="_" data-name="?" transform="translate(0 75.507)" fill="#038117" font-size="70" font-family="SegoeUI-Semibold, Segoe UI" font-weight="600"><tspan x="0" y="0">?</tspan></text>
    </g>
  </g>
</svg>
