<svg xmlns="http://www.w3.org/2000/svg" width="157.001" height="91.001" viewBox="0 0 157.001 91.001">
  <g id="Group_8494" data-name="Group 8494" transform="translate(-230 -449)">
    <g id="Group_8490" data-name="Group 8490" transform="translate(53.001 0.999)">
      <path id="Intersection_2" data-name="Intersection 2" d="M10.4,91a104.74,104.74,0,0,1,0-91H145a12,12,0,0,1,12,12V79a12,12,0,0,1-12,12Z" transform="translate(176.999 448.001)" fill="#7bbd85" opacity="0.2"/>
      <path id="Intersection_1" data-name="Intersection 1" d="M15.75,91a73.6,73.6,0,0,1,0-91H117a12,12,0,0,1,12,12V79a12,12,0,0,1-12,12Z" transform="translate(204.999 448.001)" fill="#038117" opacity="0.4"/>
    </g>
    <g id="history" transform="translate(249.529 464.522)">
      <path id="Path_10309" data-name="Path 10309" d="M94.456,15.26V54.189a5.774,5.774,0,0,1-5.767,5.767H62.375a5.774,5.774,0,0,1-5.767-5.767V28.876a14.185,14.185,0,0,0,4.326.11v25.2a1.443,1.443,0,0,0,1.442,1.442H88.688a1.444,1.444,0,0,0,1.442-1.442V15.26a1.443,1.443,0,0,0-1.442-1.442H74.415a15.252,15.252,0,0,0-.631-4.325h14.9A5.774,5.774,0,0,1,94.456,15.26ZM58.89,27.2a13.6,13.6,0,1,1,13.6-13.6A13.617,13.617,0,0,1,58.89,27.2Zm0-2.884A10.718,10.718,0,1,0,48.172,13.6,10.73,10.73,0,0,0,58.89,24.321Zm8.158-9.276a1.442,1.442,0,0,0,0-2.884H60.332V6.5a1.442,1.442,0,1,0-2.884,0v7.1a1.442,1.442,0,0,0,1.442,1.442Zm16.641,11.69H68.07a1.442,1.442,0,1,0,0,2.884h15.62a1.442,1.442,0,0,0,0-2.884Zm.025,8.746H68.095a1.442,1.442,0,0,0,0,2.884h15.62a1.442,1.442,0,0,0,0-2.884Zm0,9.108H68.095a1.442,1.442,0,1,0,0,2.883h15.62a1.442,1.442,0,0,0,0-2.883Z" fill="#038117"/>
    </g>
  </g>
</svg>
