<svg xmlns="http://www.w3.org/2000/svg" width="46.571" height="53.476" viewBox="0 0 46.571 53.476">
  <g id="_022-box-2" data-name="022-box-2" transform="translate(-33.057)">
    <g id="Group_148" data-name="Group 148" transform="translate(57.963)">
      <g id="Group_147" data-name="Group 147">
        <path id="Path_68" data-name="Path 68" d="M285.3,1.5A3.017,3.017,0,0,0,282.7,0H271.516V13.227h20.567Z" transform="translate(-271.516 0)" fill="#c5c6c8"/>
      </g>
    </g>
    <g id="Group_150" data-name="Group 150" transform="translate(34.179)">
      <g id="Group_149" data-name="Group 149">
        <path id="Path_69" data-name="Path 69" d="M53.163,0a3.016,3.016,0,0,0-2.606,1.506L43.8,13.227H64.45V0Z" transform="translate(-43.801)" fill="#c5c6c8"/>
      </g>
    </g>
    <g id="Group_152" data-name="Group 152" transform="translate(33.057 16.361)">
      <g id="Group_151" data-name="Group 151">
        <rect id="Rectangle_20" data-name="Rectangle 20" width="34" height="23" transform="translate(6.362 6.377)" fill="#ee1313"/>
        <path id="Path_70" data-name="Path 70" d="M33.057,156.648v33.43a3.69,3.69,0,0,0,3.686,3.685h39.2a3.69,3.69,0,0,0,3.686-3.685v-33.43Zm32.232,26.079H47.4a1.567,1.567,0,1,1,0-3.135H65.289a1.567,1.567,0,1,1,0,3.135Zm-15.952-7.98A1.567,1.567,0,0,1,50.9,173.18H61.78a1.567,1.567,0,0,1,0,3.135H50.9A1.567,1.567,0,0,1,49.337,174.748Zm20.131-4.453H43.216a1.567,1.567,0,0,1,0-3.135H69.469a1.567,1.567,0,0,1,0,3.135Z" transform="translate(-33.057 -156.648)" fill="#c5c6c8"/>
      </g>
    </g>
  </g>
</svg>
