<svg xmlns="http://www.w3.org/2000/svg" width="16.342" height="20.702" viewBox="0 0 16.342 20.702">
  <g id="underground" transform="translate(-61.359)">
    <g id="Layer_1_21_" transform="translate(61.359)">
      <path id="Path_10276" data-name="Path 10276" d="M77.593,19.388l-3.035-5.527a1.8,1.8,0,0,0,1.495-1.767V3.941A3.944,3.944,0,0,0,72.112,0H66.947a3.992,3.992,0,0,0-3.986,3.986v8.109a1.763,1.763,0,0,0,1.495,1.767l-2.99,5.526a.892.892,0,0,0,.362,1.223.673.673,0,0,0,.408.091.877.877,0,0,0,.77-.453l.272-.453h12.5l.272.453a.841.841,0,0,0,.77.453,1.322,1.322,0,0,0,.408-.091A.892.892,0,0,0,77.593,19.388Zm-4.258-4.077h-7.61l.77-1.4h6.07ZM73.2,12.276a1.314,1.314,0,1,1,1.314-1.314A1.345,1.345,0,0,1,73.2,12.276ZM64.547,4.485a2.523,2.523,0,0,1,2.491-2.537h4.938a2.562,2.562,0,0,1,2.537,2.537V6.659a.871.871,0,0,1-.906.861H65.453a.86.86,0,0,1-.861-.861l-.045-2.174ZM65.86,9.6a1.314,1.314,0,1,1-1.314,1.314A1.315,1.315,0,0,1,65.86,9.6ZM64,18.437l1-1.767h9.06l1,1.767Z" transform="translate(-61.359)" fill="#038117"/>
    </g>
  </g>
</svg>
